<?xml version="1.0" encoding="UTF-8"?>
<svg version="1.1" xmlns="http://www.w3.org/2000/svg" width="192" height="192">
<path d="M0 0 C0.63421875 0.45503906 1.2684375 0.91007812 1.921875 1.37890625 C2.98921875 2.07306641 2.98921875 2.07306641 4.078125 2.78125 C5.62487196 3.79436926 7.16668271 4.81507032 8.703125 5.84375 C18.02953281 10.29190324 27.31424105 10.74679837 37.484375 10.44140625 C60.18796895 9.83888286 60.18796895 9.83888286 67.4296875 15.78125 C72.5567102 21.27065389 74.59903522 27.90934132 76.24609375 35.09375 C76.77472119 37.55012059 76.77472119 37.55012059 78.921875 39.37890625 C79.234375 41.81640625 79.234375 41.81640625 78.921875 44.37890625 C78.4371875 44.84167969 77.9525 45.30445313 77.453125 45.78125 C75.58406714 47.73136394 75.46479932 48.85954929 75.109375 51.50390625 C73.80668648 58.10347701 70.33203488 64.01219356 64.734375 67.87890625 C61.31799392 69.70097616 58.5985919 70.50275257 54.78125 70.6953125 C53.55728516 70.7579126 53.55728516 70.7579126 52.30859375 70.82177734 C51.43847656 70.86125488 50.56835938 70.90073242 49.671875 70.94140625 C48.32802734 71.00835693 48.32802734 71.00835693 46.95703125 71.07666016 C41.59488444 71.32430567 36.28743776 71.37079092 30.921875 71.25390625 C20.70586895 71.2096332 12.63268976 73.37332258 4.078125 78.9765625 C3.3665625 79.43933594 2.655 79.90210938 1.921875 80.37890625 C1.27347656 80.82363281 0.62507813 81.26835937 -0.04296875 81.7265625 C-2.078125 82.37890625 -2.078125 82.37890625 -4.48828125 81.40234375 C-5.36355469 80.85835938 -6.23882812 80.314375 -7.140625 79.75390625 C-17.30511298 73.81556233 -26.7270473 71.2680798 -38.4765625 71.203125 C-40.10678378 71.17992949 -41.73699217 71.15581226 -43.3671875 71.13085938 C-45.91024491 71.09579794 -48.45282421 71.06640784 -50.99609375 71.05297852 C-53.46932227 71.03740101 -55.9411971 70.99714527 -58.4140625 70.953125 C-59.53788834 70.95598763 -59.53788834 70.95598763 -60.68441772 70.95890808 C-67.03967144 70.81350789 -72.26642479 68.85916832 -77.06640625 64.625 C-80.52966358 59.89494648 -82.14910795 55.53994769 -83.33984375 49.796875 C-84.14820337 47.14939033 -85.08647398 46.21942928 -87.078125 44.37890625 C-87.453125 41.87890625 -87.453125 41.87890625 -87.078125 39.37890625 C-86.60503906 38.9509375 -86.13195312 38.52296875 -85.64453125 38.08203125 C-83.50976401 35.76093769 -83.26792704 33.6991796 -82.640625 30.62890625 C-80.80972491 22.84523358 -78.54120456 17.88414016 -71.76171875 13.32421875 C-67.76584342 11.08059501 -63.91030365 11.22872782 -59.47265625 11.203125 C-57.91470078 11.17987626 -56.35675811 11.15575709 -54.79882812 11.13085938 C-52.36621166 11.09618046 -49.93405082 11.06665029 -47.5012207 11.05297852 C-31.84244671 10.94797281 -18.27240577 9.05146298 -4.75 0.57421875 C-2.078125 -0.62109375 -2.078125 -0.62109375 0 0 Z " fill="#9B0D0D" transform="translate(100.078125,54.62109375)"/>
<path d="M0 0 C0.63421875 0.45503906 1.2684375 0.91007812 1.921875 1.37890625 C2.98921875 2.07306641 2.98921875 2.07306641 4.078125 2.78125 C5.62487196 3.79436926 7.16668271 4.81507032 8.703125 5.84375 C18.02953281 10.29190324 27.31424105 10.74679837 37.484375 10.44140625 C60.18796895 9.83888286 60.18796895 9.83888286 67.4296875 15.78125 C72.5567102 21.27065389 74.59903522 27.90934132 76.24609375 35.09375 C76.77472119 37.55012059 76.77472119 37.55012059 78.921875 39.37890625 C79.234375 41.81640625 79.234375 41.81640625 78.921875 44.37890625 C78.4371875 44.84167969 77.9525 45.30445313 77.453125 45.78125 C75.58406714 47.73136394 75.46479932 48.85954929 75.109375 51.50390625 C73.80668648 58.10347701 70.33203488 64.01219356 64.734375 67.87890625 C61.31799392 69.70097616 58.5985919 70.50275257 54.78125 70.6953125 C53.55728516 70.7579126 53.55728516 70.7579126 52.30859375 70.82177734 C51.43847656 70.86125488 50.56835938 70.90073242 49.671875 70.94140625 C48.32802734 71.00835693 48.32802734 71.00835693 46.95703125 71.07666016 C41.59488444 71.32430567 36.28743776 71.37079092 30.921875 71.25390625 C20.70586895 71.2096332 12.63268976 73.37332258 4.078125 78.9765625 C3.3665625 79.43933594 2.655 79.90210938 1.921875 80.37890625 C1.27347656 80.82363281 0.62507813 81.26835937 -0.04296875 81.7265625 C-2.078125 82.37890625 -2.078125 82.37890625 -4.48828125 81.40234375 C-5.36355469 80.85835938 -6.23882812 80.314375 -7.140625 79.75390625 C-17.30511298 73.81556233 -26.7270473 71.2680798 -38.4765625 71.203125 C-40.10678378 71.17992949 -41.73699217 71.15581226 -43.3671875 71.13085938 C-45.91024491 71.09579794 -48.45282421 71.06640784 -50.99609375 71.05297852 C-53.46932227 71.03740101 -55.9411971 70.99714527 -58.4140625 70.953125 C-59.53788834 70.95598763 -59.53788834 70.95598763 -60.68441772 70.95890808 C-67.10171378 70.81208844 -72.55064089 68.92077832 -77.13671875 64.30859375 C-77.59175781 63.63054687 -78.04679687 62.9525 -78.515625 62.25390625 C-79.22525391 61.22910156 -79.22525391 61.22910156 -79.94921875 60.18359375 C-82.33331198 56.37234436 -82.35361558 53.21948246 -82.6015625 48.7890625 C-83.15630045 45.98354354 -84.04749787 45.28465524 -86.078125 43.37890625 C-86.078125 42.38890625 -86.078125 41.39890625 -86.078125 40.37890625 C-84.593125 39.88390625 -84.593125 39.88390625 -83.078125 39.37890625 C-79.90172365 44.24938832 -78.45717253 48.30038399 -77.5703125 54.046875 C-77.05990827 56.46521887 -76.35307579 58.26639655 -75.078125 60.37890625 C-73.12791417 61.60418573 -73.12791417 61.60418573 -71.078125 62.37890625 C-70.418125 62.70890625 -69.758125 63.03890625 -69.078125 63.37890625 C-66.75396204 63.46477434 -64.42729193 63.48601668 -62.1015625 63.4765625 C-61.416315 63.47514755 -60.7310675 63.4737326 -60.02505493 63.47227478 C-57.83436739 63.466673 -55.6437817 63.45412031 -53.453125 63.44140625 C-51.96875148 63.43639147 -50.48437635 63.43182853 -49 63.42773438 C-45.35934185 63.41670302 -41.71874336 63.39943724 -38.078125 63.37890625 C-38.08714844 62.2695874 -38.09617188 61.16026855 -38.10546875 60.01733398 C-38.07493537 55.95448606 -37.32440151 53.19562807 -36.078125 49.37890625 C-35.088125 49.70890625 -34.098125 50.03890625 -33.078125 50.37890625 C-32.583125 52.85390625 -32.583125 52.85390625 -32.078125 55.37890625 C-31.335625 54.57453125 -30.593125 53.77015625 -29.828125 52.94140625 C-27.18971748 50.48289015 -26.40326661 49.99704155 -23.078125 49.37890625 C-23.16491263 51.67129686 -23.27307773 53.96288695 -23.390625 56.25390625 C-23.47763672 58.16816406 -23.47763672 58.16816406 -23.56640625 60.12109375 C-23.81970703 61.73371094 -23.81970703 61.73371094 -24.078125 63.37890625 C-25.068125 64.03890625 -26.058125 64.69890625 -27.078125 65.37890625 C-25.35916016 65.85070312 -25.35916016 65.85070312 -23.60546875 66.33203125 C-22.07538294 66.76383461 -20.54544266 67.19615386 -19.015625 67.62890625 C-18.26345703 67.83386719 -17.51128906 68.03882812 -16.73632812 68.25 C-12.9225132 69.33966141 -9.64981759 70.51560823 -6.26953125 72.61328125 C-3.39365098 74.55008491 -3.39365098 74.55008491 -1.07421875 74.34765625 C2.55018621 72.58864954 6.13914797 70.78736124 9.70117188 68.90625 C16.0358563 65.63982157 21.39806257 65.24071362 28.44140625 65.203125 C30.12045522 65.17992483 31.79949172 65.15580741 33.47851562 65.13085938 C36.10498405 65.09581365 38.73099258 65.06642356 41.35766602 65.05297852 C43.90696826 65.03740331 46.45495625 64.99714067 49.00390625 64.953125 C49.77813431 64.95503342 50.55236237 64.95694183 51.35005188 64.95890808 C56.93242062 64.83518118 61.25020676 63.49023277 65.921875 60.37890625 C69.69824716 56.20502123 70.60382567 52.15633148 71.4296875 46.74609375 C71.921875 44.37890625 71.921875 44.37890625 73.0546875 42.20703125 C73.34085938 41.60375 73.62703125 41.00046875 73.921875 40.37890625 C72.93640501 38.70360727 71.93247021 37.03916981 70.921875 35.37890625 C70.56358639 33.72147954 70.25508986 32.05286787 69.984375 30.37890625 C69.17651982 26.02941393 68.37011385 23.37342947 64.921875 20.37890625 C59.30239585 17.89724948 54.82185354 16.95456398 48.72265625 17.0078125 C47.16731563 16.99041907 45.61197714 16.97283482 44.05664062 16.95507812 C41.65238253 16.94507157 39.24827206 16.94139631 36.84399414 16.94311523 C23.804376 16.92299444 12.65620716 15.79958046 1.546875 8.30078125 C-0.12936468 7.18102636 -0.12936468 7.18102636 -2.578125 7.31640625 C-5.40681065 8.51859765 -8.10303073 9.90880507 -10.828125 11.328125 C-18.98988254 15.13977913 -27.48661718 16.5042538 -36.4140625 16.58984375 C-38.05209336 16.61791057 -39.69011406 16.64657502 -41.328125 16.67578125 C-43.89094778 16.7169905 -46.4535806 16.75391094 -49.01660156 16.78027344 C-51.50364468 16.80802421 -53.98984778 16.85388559 -56.4765625 16.90234375 C-57.61283585 16.90722305 -57.61283585 16.90722305 -58.77206421 16.91220093 C-65.09078844 17.056765 -69.59448165 18.62906661 -74.828125 22.31640625 C-78.18111347 26.88019611 -79.00063811 31.88635115 -80.078125 37.37890625 C-82.46183409 34.99519716 -82.37401102 34.38524635 -82.390625 31.12890625 C-82.23634976 24.71105629 -79.52088179 19.94173754 -75.078125 15.37890625 C-66.75989105 9.606201 -56.93530339 10.84988084 -47.2265625 10.88818359 C-31.61178655 10.90450338 -18.24507796 9.03433108 -4.75 0.57421875 C-2.078125 -0.62109375 -2.078125 -0.62109375 0 0 Z " fill="#E2C6C6" transform="translate(100.078125,54.62109375)"/>
<path d="M0 0 C1.485 0.99 1.485 0.99 3 2 C3 2.66 3 3.32 3 4 C13.53418286 9.34462325 22.75952908 9.44778062 34.3125 9.5 C49.07761154 9.56717388 61.16809339 10.38176765 74.30859375 17.890625 C77.47461684 19.19563307 78.79642648 19.10286957 82 18 C83.91159448 16.94112629 83.91159448 16.94112629 85.6875 15.625 C96.5866053 8.63269691 108.60086614 9.55568962 121.06225586 9.56420898 C134.07599026 9.7141027 134.07599026 9.7141027 146 5 C147.32895924 4.32465596 148.66122489 3.65567022 150 3 C148.49364535 7.21779303 145.75987578 8.7747674 142 11 C139.36356024 11.87881325 137.58166162 12.1790847 134.859375 12.31640625 C133.63541016 12.37900635 133.63541016 12.37900635 132.38671875 12.44287109 C131.51660156 12.48234863 130.64648438 12.52182617 129.75 12.5625 C128.85410156 12.60713379 127.95820313 12.65176758 127.03515625 12.69775391 C121.67300944 12.94539942 116.36556276 12.99188467 111 12.875 C100.78399395 12.83072695 92.71081476 14.99441633 84.15625 20.59765625 C83.4446875 21.06042969 82.733125 21.52320313 82 22 C81.35160156 22.44472656 80.70320313 22.88945312 80.03515625 23.34765625 C78 24 78 24 75.58984375 23.0234375 C74.27693359 22.20746094 74.27693359 22.20746094 72.9375 21.375 C62.77301202 15.43665608 53.3510777 12.88917355 41.6015625 12.82421875 C39.97134122 12.80102324 38.34113283 12.77690601 36.7109375 12.75195312 C34.16788009 12.71689169 31.62530079 12.68750159 29.08203125 12.67407227 C26.60880273 12.65849476 24.1369279 12.61823902 21.6640625 12.57421875 C20.54023666 12.57708138 20.54023666 12.57708138 19.39370728 12.58000183 C13.27421074 12.43999547 7.91979721 10.76478218 3.39712524 6.48222351 C0 2.57424204 0 2.57424204 0 0 Z " fill="#520B0B" transform="translate(20,113)"/>
<path d="M0 0 C0.63421875 0.45503906 1.2684375 0.91007812 1.921875 1.37890625 C2.98921875 2.07306641 2.98921875 2.07306641 4.078125 2.78125 C5.62487196 3.79436926 7.16668271 4.81507032 8.703125 5.84375 C18.02953281 10.29190324 27.31424105 10.74679837 37.484375 10.44140625 C59.99884365 9.843902 59.99884365 9.843902 68.921875 17.37890625 C68.591875 18.03890625 68.261875 18.69890625 67.921875 19.37890625 C67.014375 18.73953125 66.106875 18.10015625 65.171875 17.44140625 C59.95698992 14.13195995 55.45110482 14.23477433 49.38671875 14.203125 C47.67251402 14.17990762 45.9583213 14.15578953 44.24414062 14.13085938 C41.56087418 14.09593564 38.87804483 14.06650033 36.19458008 14.05297852 C13.62441668 13.91720243 13.62441668 13.91720243 4.109375 6.56640625 C1.17760487 4.07204571 1.17760487 4.07204571 -1.890625 4.55859375 C-6.3934955 5.71742072 -10.24761238 7.79523501 -14.37109375 9.90625 C-25.59400262 14.36466585 -37.66647599 13.73083842 -49.54711914 13.75976562 C-58.7803841 13.79745627 -66.74574941 13.85803813 -75.078125 18.37890625 C-75.738125 18.70890625 -76.398125 19.03890625 -77.078125 19.37890625 C-75.44724942 15.63378715 -73.66108154 13.9047272 -69.87890625 12.16015625 C-62.66700316 10.1484678 -54.66461031 10.85883914 -47.2265625 10.88818359 C-31.61178655 10.90450338 -18.24507796 9.03433108 -4.75 0.57421875 C-2.078125 -0.62109375 -2.078125 -0.62109375 0 0 Z " fill="#630C0C" transform="translate(100.078125,54.62109375)"/>
<path d="M0 0 C1.921875 1.0859375 1.921875 1.0859375 3.75 2.375 C7.42868226 4.81344081 10.96259558 6.10332713 15.21484375 7.2265625 C15.80394531 7.48179688 16.39304687 7.73703125 17 8 C17.495 9.485 17.495 9.485 18 11 C11.77760659 10.71716394 7.22177202 8.28659456 1.76953125 5.375 C-1.48953516 3.71371679 -1.48953516 3.71371679 -5 3 C-7.30546496 3.86419582 -7.30546496 3.86419582 -9.625 5.25 C-18.79608953 10.12679798 -28.00083266 12.11185192 -38.3359375 12.2109375 C-39.97396836 12.23900432 -41.61198906 12.26766877 -43.25 12.296875 C-45.81282278 12.33808425 -48.3754556 12.37500469 -50.93847656 12.40136719 C-53.42551968 12.42911796 -55.91172278 12.47497934 -58.3984375 12.5234375 C-59.53471085 12.5283168 -59.53471085 12.5283168 -60.69393921 12.53329468 C-67.01266344 12.67785875 -71.51635665 14.25016036 -76.75 17.9375 C-80.10298847 22.50128986 -80.92251311 27.5074449 -82 33 C-84.38370909 30.61629091 -84.29588602 30.0063401 -84.3125 26.75 C-84.16586304 22.38580464 -83.70049751 19.57418788 -81 16 C-73.67121068 10.66313803 -68.09333332 8.88179819 -59.12109375 8.75390625 C-57.54361493 8.72093492 -55.9661411 8.68772389 -54.38867188 8.65429688 C-51.92280906 8.60720024 -49.45696145 8.56281267 -46.9909668 8.52319336 C-28.95243541 8.28222097 -28.95243541 8.28222097 -12.125 2.3125 C-4.5861441 -1.7139344 -4.5861441 -1.7139344 0 0 Z " fill="#E2C3C3" transform="translate(102,59)"/>
<path d="M0 0 C5.56841139 -0.07444911 11.13652964 -0.12874318 16.70532227 -0.16479492 C18.59762625 -0.17983246 20.48989566 -0.20026785 22.38208008 -0.22631836 C25.11027586 -0.26292399 27.83800871 -0.2797769 30.56640625 -0.29296875 C31.40522842 -0.30845261 32.2440506 -0.32393646 33.10829163 -0.33988953 C38.52976031 -0.34142453 42.15915144 0.5413795 47 3 C48.051875 3.515625 49.10375 4.03125 50.1875 4.5625 C55.09779697 8.81809071 56.4572757 14.88073469 58.125 21 C58.76370848 24.08426356 58.76370848 24.08426356 61 26 C61.3125 28.4375 61.3125 28.4375 61 31 C60.28457031 31.67675781 60.28457031 31.67675781 59.5546875 32.3671875 C57.60656339 34.4132073 57.33107359 35.93507094 56.8125 38.6875 C56.57466797 39.89986328 56.57466797 39.89986328 56.33203125 41.13671875 C56.22246094 41.75160156 56.11289063 42.36648437 56 43 C55.67 43 55.34 43 55 43 C55 37.33333333 55 31.66666667 55 26 C54.34739316 24.65972893 53.67972554 23.32672356 53 22 C52.66451949 20.36253561 52.37456646 18.71524117 52.125 17.0625 C51.27963372 12.70758282 50.45405301 9.99957235 47 7 C41.27532205 4.45999563 36.66827534 3.56824726 30.44921875 3.59375 C29.27828423 3.57749573 29.27828423 3.57749573 28.08369446 3.56091309 C24.77842725 3.51538741 21.47324949 3.50350203 18.16772461 3.48876953 C15.74043698 3.47311114 13.31380891 3.44014927 10.88671875 3.40625 C9.76640511 3.41078186 9.76640511 3.41078186 8.62345886 3.41540527 C3.38270748 3.33912809 3.38270748 3.33912809 1.28010559 1.47595215 C0.85767075 0.98888794 0.4352359 0.50182373 0 0 Z " fill="#E0C1C1" transform="translate(118,68)"/>
<path d="M0 0 C3.8122741 1.41931788 7.32161461 3.42632153 10.90625 5.3359375 C17.41841046 8.27264144 23.50478094 9.09628743 30.546875 9.1171875 C32.12500386 9.14233676 33.70312878 9.16773493 35.28125 9.19335938 C37.72980813 9.22207643 40.17829813 9.24614293 42.62695312 9.26489258 C45.01726473 9.28669674 47.4068275 9.326125 49.796875 9.3671875 C50.51794434 9.36730331 51.23901367 9.36741913 51.98193359 9.36753845 C57.77399713 9.4788112 63.51325652 10.53215168 68.046875 14.4140625 C69.08854167 15.87890625 70.13020833 17.34375 71.171875 18.80859375 C70.841875 19.46859375 70.511875 20.12859375 70.171875 20.80859375 C68.79624646 19.51894199 67.46421107 18.18170082 66.171875 16.80859375 C66.171875 16.14859375 66.171875 15.48859375 66.171875 14.80859375 C61.12438606 12.78899621 56.81696552 12.52836891 51.4765625 12.53515625 C49.77343111 12.51485205 48.07030617 12.494001 46.3671875 12.47265625 C43.71478823 12.45018657 41.06264594 12.4336288 38.41015625 12.42773438 C25.01754722 12.37768726 14.24940115 11.39854406 2.84765625 3.7265625 C1.08835663 2.58839806 1.08835663 2.58839806 -1.578125 2.80859375 C-3.86187113 3.7048384 -3.86187113 3.7048384 -5.61328125 5.26953125 C-8.20845876 7.07288211 -10.45388692 7.68962001 -13.515625 8.43359375 C-16.96697168 9.05736296 -16.96697168 9.05736296 -19.828125 10.80859375 C-25.51677967 11.86162725 -31.14419095 12.01831094 -36.91796875 12.125 C-37.86249405 12.1457811 -38.80701935 12.16656219 -39.78016663 12.18797302 C-42.77525073 12.25296729 -45.77041693 12.31211875 -48.765625 12.37109375 C-50.80534678 12.41432672 -52.84506048 12.45794248 -54.88476562 12.50195312 C-59.86580288 12.6085968 -64.8469221 12.71000315 -69.828125 12.80859375 C-65.93716471 8.91763346 -60.99219275 9.64846699 -55.765625 9.59765625 C-54.14712585 9.56955616 -52.52863642 9.54089154 -50.91015625 9.51171875 C-48.3807028 9.47075594 -45.85142457 9.43383887 -43.32177734 9.40722656 C-29.69303482 9.25171465 -11.15881743 -1.16833772 0 0 Z " fill="#670C0B" transform="translate(98.828125,61.19140625)"/>
<path d="M0 0 C1.98 0 3.96 0 6 0 C7.32 2.64 8.64 5.28 10 8 C11.32 5.36 12.64 2.72 14 0 C15.65 0 17.3 0 19 0 C19 5.94 19 11.88 19 18 C17.35 18 15.7 18 14 18 C13.67 16.35 13.34 14.7 13 13 C12.34 14.65 11.68 16.3 11 18 C10.01 17.67 9.02 17.34 8 17 C6.8125 14.4375 6.8125 14.4375 6 12 C5.67 13.98 5.34 15.96 5 18 C3.35 18 1.7 18 0 18 C0 12.06 0 6.12 0 0 Z " fill="#F7EFEE" transform="translate(89,76)"/>
<path d="M0 0 C10.19694397 -0.48556876 10.19694397 -0.48556876 13.6875 1.625 C15.40455522 4.73205231 15.58338557 6.49968658 15 10 C13.375 12.375 13.375 12.375 11 14 C7.75 14.25 7.75 14.25 5 14 C5 15.32 5 16.64 5 18 C3.35 18 1.7 18 0 18 C0 12.06 0 6.12 0 0 Z " fill="#F9F2F2" transform="translate(114,76)"/>
<path d="M0 0 C1.65 0 3.3 0 5 0 C5 2.31 5 4.62 5 7 C7.31 7 9.62 7 12 7 C12 4.69 12 2.38 12 0 C13.65 0 15.3 0 17 0 C17 5.94 17 11.88 17 18 C15.35 18 13.7 18 12 18 C12 15.69 12 13.38 12 11 C9.69 11 7.38 11 5 11 C5 13.31 5 15.62 5 18 C3.35 18 1.7 18 0 18 C0 12.06 0 6.12 0 0 Z " fill="#FAF5F5" transform="translate(67,76)"/>
<path d="M0 0 C0.99 0.33 1.98 0.66 3 1 C3.495 3.475 3.495 3.475 4 6 C4.7425 5.195625 5.485 4.39125 6.25 3.5625 C8.88840752 1.1039839 9.67485839 0.6181353 13 0 C12.94014621 2.29240007 12.85140973 4.58406206 12.75 6.875 C12.70359375 8.15117188 12.6571875 9.42734375 12.609375 10.7421875 C12 14 12 14 10.50585938 15.19140625 C6.79908475 16.38751279 3.14882018 16.24436754 -0.703125 16.1953125 C-1.54091492 16.1924826 -2.37870483 16.18965271 -3.24188232 16.18673706 C-5.91140163 16.17556349 -8.5805825 16.15046421 -11.25 16.125 C-13.06249515 16.11496654 -14.87499556 16.10584133 -16.6875 16.09765625 C-21.12512993 16.0756334 -25.56250763 16.04112304 -30 16 C-30 15.67 -30 15.34 -30 15 C-20.76 14.67 -11.52 14.34 -2 14 C-2 11.69 -2 9.38 -2 7 C-1.51809826 4.56037242 -0.77487263 2.37304743 0 0 Z " fill="#9E2323" transform="translate(64,104)"/>
<path d="M0 0 C4.26305451 4.11605263 5.09001755 8.56696423 6.2890625 14.16015625 C7.45087982 18.89216523 7.45087982 18.89216523 10.8125 22.125 C11.534375 22.41375 12.25625 22.7025 13 23 C13.68408936 23.33950684 14.36817871 23.67901367 15.07299805 24.02880859 C19.0774457 25.35750096 22.82517696 25.35549661 27.01953125 25.4140625 C28.30738777 25.44311172 28.30738777 25.44311172 29.6212616 25.4727478 C32.35157474 25.53231556 35.08193057 25.57883734 37.8125 25.625 C39.66863773 25.66320079 41.52475812 25.70225375 43.38085938 25.7421875 C47.92043144 25.83799827 52.46008646 25.92211321 57 26 C57 26.66 57 27.32 57 28 C51.16511686 28.12417084 45.33101316 28.21460824 39.49511719 28.2746582 C37.51255891 28.29970683 35.53009211 28.33375584 33.54785156 28.37719727 C30.68792074 28.43827619 27.82921708 28.46630629 24.96875 28.48828125 C23.65263733 28.52699089 23.65263733 28.52699089 22.30993652 28.56648254 C14.38227272 28.5700456 9.79896866 25.56075856 4.0625 20.3125 C1.64609157 16.43160162 1.4049451 13.76192594 1.3359375 9.26953125 C0.92673389 6.50502778 -0.01535423 5.8638869 -2 4 C-2 3.01 -2 2.02 -2 1 C-1.34 0.67 -0.68 0.34 0 0 Z " fill="#E7CECE" transform="translate(16,94)"/>
<path d="M0 0 C1.98071649 3.96143297 0.87274148 8.7888698 0 13 C-3.20350898 17.56257339 -7.83911162 20.06669265 -13 22 C-16.12367479 22.49229775 -19.15662518 22.47088432 -22.3125 22.390625 C-23.59398926 22.38213531 -23.59398926 22.38213531 -24.90136719 22.37347412 C-27.60150753 22.3512739 -30.30026807 22.3011112 -33 22.25 C-34.84242861 22.22991374 -36.68487824 22.21166671 -38.52734375 22.1953125 C-43.01875215 22.15146318 -47.50914302 22.08255252 -52 22 C-48.28465178 19.63173022 -45.00664056 19.74628051 -40.671875 19.7265625 C-39.21744037 19.70626258 -37.76301335 19.6854116 -36.30859375 19.6640625 C-34.03330049 19.64154938 -31.75830937 19.62502148 -29.48291016 19.61914062 C-17.64477706 19.7095023 -17.64477706 19.7095023 -7 15 C-2.96423331 10.44682733 -2.59083733 6.80990044 -2 1 C-1.34 0.67 -0.68 0.34 0 0 Z " fill="#E6CBCC" transform="translate(173,100)"/>
<path d="M0 0 C0.99 0.33 1.98 0.66 3 1 C3.33 2.65 3.66 4.3 4 6 C4.7425 5.195625 5.485 4.39125 6.25 3.5625 C9 1 9 1 13 0 C12.67 4.29 12.34 8.58 12 13 C11.34 13 10.68 13 10 13 C9.67 10.69 9.34 8.38 9 6 C8.01 7.32 7.02 8.64 6 10 C4.68 9.34 3.36 8.68 2 8 C1.34 9.65 0.68 11.3 0 13 C-0.66 13 -1.32 13 -2 13 C-1.85769192 11.58297487 -1.71099254 10.1663904 -1.5625 8.75 C-1.48128906 7.96109375 -1.40007813 7.1721875 -1.31640625 6.359375 C-1.02365007 4.17635361 -0.57935581 2.1226818 0 0 Z " fill="#F1E2E1" transform="translate(64,104)"/>
<path d="M0 0 C0 0.66 0 1.32 0 2 C0.66 2.33 1.32 2.66 2 3 C0.948125 3.391875 -0.10375 3.78375 -1.1875 4.1875 C-5.04592384 5.90235504 -7.44485394 7.52216231 -10 11 C-11.28367548 14.94897759 -12.20110073 18.92756224 -13 23 C-15.38370909 20.61629091 -15.29588602 20.0063401 -15.3125 16.75 C-15.16586304 12.38580464 -14.70049751 9.57418788 -12 6 C-3.68275862 0 -3.68275862 0 0 0 Z " fill="#D1B0B0" transform="translate(33,69)"/>
<path d="M0 0 C1.36899389 2.58968011 2.20851622 4.75587131 3 7.625 C3.71908078 11.03714202 3.71908078 11.03714202 6 13 C6.3125 15.4375 6.3125 15.4375 6 18 C5.52304688 18.45117188 5.04609375 18.90234375 4.5546875 19.3671875 C2.60656339 21.4132073 2.33107359 22.93507094 1.8125 25.6875 C1.57466797 26.89986328 1.57466797 26.89986328 1.33203125 28.13671875 C1.22246094 28.75160156 1.11289063 29.36648437 1 30 C0.67 30 0.34 30 0 30 C0 24.33333333 0 18.66666667 0 13 C-0.17402344 12.35546875 -0.34804687 11.7109375 -0.52734375 11.046875 C-1.08922946 8.6135848 -0.88923837 6.71868988 -0.5625 4.25 C-0.46066406 3.45078125 -0.35882813 2.6515625 -0.25390625 1.828125 C-0.17011719 1.22484375 -0.08632812 0.6215625 0 0 Z " fill="#998C8C" transform="translate(173,81)"/>
<path d="M0 0 C5.84060265 0.67792709 9.94311198 2.96264401 15 5.8203125 C18.49708491 7.19546829 20.41071329 6.92936888 24 6 C23.75 7.875 23.75 7.875 23 10 C21.28125 11.30078125 21.28125 11.30078125 19 12 C16.484375 10.98828125 16.484375 10.98828125 13.75 9.3125 C9.23432269 6.66370673 4.94951307 4.6809667 0 3 C0 2.01 0 1.02 0 0 Z " fill="#570B0B" transform="translate(79,125)"/>
<path d="M0 0 C0 0.33 0 0.66 0 1 C15.84 1.495 15.84 1.495 32 2 C32 2.33 32 2.66 32 3 C30.91058105 3.01981934 29.82116211 3.03963867 28.69873047 3.06005859 C24.63942167 3.13639058 20.58045847 3.22506461 16.52148438 3.31738281 C14.76797329 3.35555888 13.01438692 3.39043124 11.26074219 3.421875 C8.73345114 3.46777359 6.20667322 3.5257257 3.6796875 3.5859375 C2.90132538 3.59748871 2.12296326 3.60903992 1.3210144 3.62094116 C-3.18133719 3.74178212 -6.72006237 4.4751988 -11 6 C-14.375 5.625 -14.375 5.625 -17 5 C-14.71636622 2.71636622 -13.25204532 2.2847151 -10.1875 1.375 C-9.33542969 1.11460938 -8.48335937 0.85421875 -7.60546875 0.5859375 C-4.98020834 -0.0044509 -2.68079363 -0.10588413 0 0 Z " fill="#D4AEAF" transform="translate(125,120)"/>
<path d="M0 0 C0 0.99 0 1.98 0 3 C-1.42578125 4.3515625 -1.42578125 4.3515625 -3.3125 5.625 C-3.92738281 6.05039063 -4.54226562 6.47578125 -5.17578125 6.9140625 C-9.7963264 9.66462257 -14.84289098 9.41316876 -20.0625 9.6875 C-20.98611328 9.74744141 -21.90972656 9.80738281 -22.86132812 9.86914062 C-23.74369141 9.91619141 -24.62605469 9.96324219 -25.53515625 10.01171875 C-26.74764038 10.08072388 -26.74764038 10.08072388 -27.98461914 10.15112305 C-30 10 -30 10 -32 8 C-27.89561511 7.03656614 -23.95689738 6.83898293 -19.75 6.6875 C-11.97656473 6.29238512 -6.42120632 4.28080421 0 0 Z " fill="#4A0A0A" transform="translate(169,116)"/>
<path d="M0 0 C4.56290271 1.61043625 9.42612667 3.61023916 12.16796875 7.7734375 C13.20527266 10.54932119 13.19536459 12.79468732 13.125 15.75 C13.10695312 16.73484375 13.08890625 17.7196875 13.0703125 18.734375 C13.04710937 19.48203125 13.02390625 20.2296875 13 21 C12.34 21 11.68 21 11 21 C10.90203125 20.33613281 10.8040625 19.67226562 10.703125 18.98828125 C9.50283708 11.68297116 9.50283708 11.68297116 5 6 C2.36014171 4.75592885 -0.20414637 3.88535365 -3 3 C-2.01 2.01 -1.02 1.02 0 0 Z " fill="#DFBFBF" transform="translate(160,69)"/>
<path d="M0 0 C1.32 0.33 2.64 0.66 4 1 C4.33 3.97 4.66 6.94 5 10 C4.01 10 3.02 10 2 10 C2 9.34 2 8.68 2 8 C1.01 8.66 0.02 9.32 -1 10 C-3.1875 9.625 -3.1875 9.625 -5 9 C-4.64947365 5.84526281 -4.13480924 4.1766466 -2.1875 1.625 C-1.465625 1.08875 -0.74375 0.5525 0 0 Z " fill="#EEDCDC" transform="translate(110,107)"/>
<path d="M0 0 C1.32 0.33 2.64 0.66 4 1 C4.33 3.97 4.66 6.94 5 10 C3.68 9.67 2.36 9.34 1 9 C-1.68149993 9.38567131 -1.68149993 9.38567131 -4 10 C-4.8125 8.375 -4.8125 8.375 -5 6 C-3.53181864 3.75390165 -1.84147142 1.97621323 0 0 Z " fill="#CF9A99" transform="translate(86,107)"/>
<path d="M0 0 C1.32 0.33 2.64 0.66 4 1 C4.33 3.97 4.66 6.94 5 10 C3.68 9.67 2.36 9.34 1 9 C-1.68149993 9.38567131 -1.68149993 9.38567131 -4 10 C-4.33102914 6.3586795 -4.42019439 4.58527075 -2.25 1.5625 C-1.5075 1.046875 -0.765 0.53125 0 0 Z " fill="#F4EAE8" transform="translate(131,107)"/>
<path d="M0 0 C0 0.33 0 0.66 0 1 C-5.09224097 1.83365416 -10.04506923 2.14592412 -15.20703125 2.17578125 C-16.77931024 2.19898103 -18.35157591 2.22309843 -19.92382812 2.24804688 C-22.36573239 2.28304661 -24.8071436 2.31247048 -27.24926758 2.32592773 C-36.53366133 2.38689203 -44.62878426 2.44571164 -53 7 C-53.99 7.495 -53.99 7.495 -55 8 C-53.63016497 4.83884224 -53.0109362 4.0072908 -50 2 C-45.30679847 0.93865658 -40.61265215 0.79309995 -35.8203125 0.68359375 C-34.66292068 0.6524221 -34.66292068 0.6524221 -33.48214722 0.62062073 C-31.02984825 0.5556724 -28.57744545 0.49662706 -26.125 0.4375 C-24.48566754 0.39424029 -22.84634446 0.35062379 -21.20703125 0.30664062 C-19.61980011 0.26529949 -18.03256072 0.22427361 -16.4453125 0.18359375 C-15.35429733 0.15548866 -15.35429733 0.15548866 -14.24124146 0.1268158 C-9.49278703 0.01302622 -4.7498278 -0.01569694 0 0 Z " fill="#8B1313" transform="translate(78,66)"/>
<path d="M0 0 C3.30143198 1.28389021 6.20762549 3.06127674 9.25 4.875 C8.92 5.535 8.59 6.195 8.25 6.875 C7.198125 6.194375 6.14625 5.51375 5.0625 4.8125 C2.53853835 3.37750568 1.52649697 2.86856984 -1.4375 2.9375 C-3.78466737 3.75898749 -3.78466737 3.75898749 -5.5546875 5.33203125 C-8.07423057 7.10288447 -10.20968133 7.74831762 -13.1875 8.5 C-14.11433594 8.73976563 -15.04117188 8.97953125 -15.99609375 9.2265625 C-16.90488281 9.44054687 -17.81367187 9.65453125 -18.75 9.875 C-19.62785156 10.10960938 -20.50570312 10.34421875 -21.41015625 10.5859375 C-23.75 10.875 -23.75 10.875 -26.75 8.875 C-25.99976562 8.70484375 -25.24953125 8.5346875 -24.4765625 8.359375 C-17.95655137 6.81559403 -5.93067461 -0.42361961 0 0 Z " fill="#6D1717" transform="translate(98.75,61.125)"/>
<path d="M0 0 C-2.78122531 0.7362067 -4.78153336 1.03751672 -7.63720703 0.54711914 C-11.67097828 -0.10916671 -15.60017527 -0.22881357 -19.6796875 -0.31640625 C-20.49245148 -0.33718735 -21.30521545 -0.35796844 -22.14260864 -0.37937927 C-24.71999257 -0.44437579 -27.29747194 -0.50352593 -29.875 -0.5625 C-31.63021791 -0.60573277 -33.38542643 -0.64934852 -35.140625 -0.69335938 C-39.42698738 -0.80000549 -43.71344504 -0.90141114 -48 -1 C-48 -1.33 -48 -1.66 -48 -2 C-42.87733634 -2.16868987 -37.75450243 -2.329126 -32.63134766 -2.48217773 C-30.89136945 -2.53529082 -29.15145653 -2.5905927 -27.41162109 -2.64819336 C-24.89955726 -2.7309691 -22.38735784 -2.80566663 -19.875 -2.87890625 C-19.10696045 -2.90594131 -18.3389209 -2.93297638 -17.54760742 -2.96083069 C-4.95413662 -3.30275775 -4.95413662 -3.30275775 0 0 Z " fill="#CBA6A5" transform="translate(84,124)"/>
<path d="M0 0 C6.42348072 0.01632389 12.84581451 0.07127211 19.26879883 0.15258789 C21.4519914 0.17572899 23.63529499 0.19015444 25.81860352 0.19555664 C28.96440507 0.20487435 32.10846974 0.24592842 35.25390625 0.29296875 C36.2239711 0.2890361 37.19403595 0.28510345 38.1934967 0.28105164 C44.7396423 0.42075498 48.03854498 1.69207803 53 6 C52.67 6.66 52.34 7.32 52 8 C50.63875 7.0409375 50.63875 7.0409375 49.25 6.0625 C43.97941169 2.71770357 39.31578418 2.83168088 33.18359375 2.75390625 C31.43293736 2.72098616 29.68228644 2.68777422 27.93164062 2.65429688 C25.17752615 2.60678243 22.42343669 2.56230032 19.66918945 2.52319336 C17.00709925 2.48354571 14.34544479 2.43200639 11.68359375 2.37890625 C10.85854843 2.3704921 10.03350311 2.36207794 9.18345642 2.35340881 C5.29572344 2.26912848 3.30597387 2.20398258 0 0 Z " fill="#9E2222" transform="translate(116,66)"/>
<path d="M0 0 C0.66 0.33 1.32 0.66 2 1 C-1.50305031 5.26458299 -5.87357457 7.24862334 -11 9 C-14.0625 9.25 -14.0625 9.25 -16 9 C-13.59405581 5.39108371 -11.97924646 4.9341759 -8 3.375 C-6.9275 2.94960938 -5.855 2.52421875 -4.75 2.0859375 C-3.38875 1.54839844 -3.38875 1.54839844 -2 1 C-1.34 0.67 -0.68 0.34 0 0 Z " fill="#7D1313" transform="translate(93,57)"/>
<path d="M0 0 C0.66 0 1.32 0 2 0 C1.67 4.95 1.34 9.9 1 15 C0.01 15 -0.98 15 -2 15 C-2.19392201 9.47322267 -1.7479503 5.24385089 0 0 Z " fill="#E0BCBB" transform="translate(121,102)"/>
<path d="M0 0 C1.2065625 0.0309375 1.2065625 0.0309375 2.4375 0.0625 C2.4375 0.7225 2.4375 1.3825 2.4375 2.0625 C1.1175 2.0625 -0.2025 2.0625 -1.5625 2.0625 C-1.5625 3.0525 -1.5625 4.0425 -1.5625 5.0625 C-0.5725 5.3925 0.4175 5.7225 1.4375 6.0625 C1.1075 7.3825 0.7775 8.7025 0.4375 10.0625 C-1.5425 10.0625 -3.5225 10.0625 -5.5625 10.0625 C-5.5625 9.4025 -5.5625 8.7425 -5.5625 8.0625 C-4.2425 7.7325 -2.9225 7.4025 -1.5625 7.0625 C-2.5525 6.4025 -3.5425 5.7425 -4.5625 5.0625 C-3.43829114 0.08386076 -3.43829114 0.08386076 0 0 Z " fill="#E8D0CF" transform="translate(99.5625,106.9375)"/>
<path d="M0 0 C2 3 2 3 1.625 5.6875 C1.41875 6.450625 1.2125 7.21375 1 8 C-0.32 8 -1.64 8 -3 8 C-1.24545615 11.18234105 -1.24545615 11.18234105 1 14 C1.04080783 15.99958364 1.04254356 18.00045254 1 20 C0.67 20 0.34 20 0 20 C-0.433125 18.576875 -0.433125 18.576875 -0.875 17.125 C-1.76825109 13.94788422 -1.76825109 13.94788422 -4 12 C-4.3125 9.5625 -4.3125 9.5625 -4 7 C-2.5625 5.4375 -2.5625 5.4375 -1 4 C-0.28552357 1.89667109 -0.28552357 1.89667109 0 0 Z " fill="#726869" transform="translate(17,87)"/>
<path d="M0 0 C1.33329006 2.66658012 0.98589615 4.47700328 0.75 7.4375 C0.68296875 8.40558594 0.6159375 9.37367187 0.546875 10.37109375 C-0.05103219 13.24531901 -0.73710461 14.20549962 -3 16 C-3.94666116 12.26706662 -3.97074447 9.51408135 -3.1875 5.75 C-3.01605469 4.87859375 -2.84460938 4.0071875 -2.66796875 3.109375 C-2.44753906 2.41328125 -2.22710937 1.7171875 -2 1 C-1.34 0.67 -0.68 0.34 0 0 Z " fill="#C8ACAD" transform="translate(173,100)"/>
<path d="M0 0 C5.54050113 0.56825653 10.03715966 2.62886517 15 5 C11.28233332 6.23922223 9.56110463 5.57018942 5.8125 4.5625 C4.72582031 4.27503906 3.63914062 3.98757812 2.51953125 3.69140625 C1.68808594 3.46324219 0.85664062 3.23507813 0 3 C0 2.01 0 1.02 0 0 Z " fill="#601616" transform="translate(79,125)"/>
<path d="M0 0 C1.87632705 3.56423633 2.9217974 7.11847063 4 11 C4.33 11.66 4.66 12.32 5 13 C4.34 13 3.68 13 3 13 C2.67 13.66 2.34 14.32 2 15 C-0.19219402 12.63310671 -0.9871902 11.48272731 -1.07421875 8.203125 C-0.88279297 6.74132812 -0.88279297 6.74132812 -0.6875 5.25 C-0.50767578 3.77273437 -0.50767578 3.77273437 -0.32421875 2.265625 C-0.21722656 1.51796875 -0.11023438 0.7703125 0 0 Z " fill="#A19191" transform="translate(173,81)"/>
<path d="M0 0 C0.33 0.66 0.66 1.32 1 2 C1.66 2 2.32 2 3 2 C2.88590407 3.45922693 2.75834456 4.91740598 2.625 6.375 C2.55539063 7.18710938 2.48578125 7.99921875 2.4140625 8.8359375 C2 11 2 11 0 13 C-1.18306728 10.63386544 -1.13354608 9.13219264 -1.125 6.5 C-1.12757812 5.7059375 -1.13015625 4.911875 -1.1328125 4.09375 C-1 2 -1 2 0 0 Z " fill="#C4ABAB" transform="translate(19,79)"/>
<path d="M0 0 C2.21368294 2.21368294 3.86552921 3.93016625 4.265625 7.11328125 C4.25166986 9.07746787 4.13286356 11.0402625 4 13 C3.67 13 3.34 13 3 13 C2.731875 12.071875 2.46375 11.14375 2.1875 10.1875 C1.05059563 7.13580933 0.25240693 6.1500248 -2 4 C-2 3.01 -2 2.02 -2 1 C-1.34 0.67 -0.68 0.34 0 0 Z " fill="#E1CACA" transform="translate(16,94)"/>
<path d="M0 0 C1.98 0.495 1.98 0.495 4 1 C4.33 3.97 4.66 6.94 5 10 C4.01 10 3.02 10 2 10 C2 9.01 2 8.02 2 7 C1.34 6.67 0.68 6.34 0 6 C0.66 4.68 1.32 3.36 2 2 C1.01 2.33 0.02 2.66 -1 3 C-0.67 2.01 -0.34 1.02 0 0 Z " fill="#F2E4E4" transform="translate(86,107)"/>
<path d="M0 0 C2.475 0.495 2.475 0.495 5 1 C4.67 2.65 4.34 4.3 4 6 C2.68 6 1.36 6 0 6 C0 4.02 0 2.04 0 0 Z " fill="#A02929" transform="translate(119,80)"/>
<path d="M0 0 C0.66 0 1.32 0 2 0 C1.67 1.32 1.34 2.64 1 4 C1.66 4.33 2.32 4.66 3 5 C3.33 4.34 3.66 3.68 4 3 C4.33 4.65 4.66 6.3 5 8 C0.25 7.125 0.25 7.125 -2 6 C-1.49396008 3.83125748 -1.00016187 2.00032373 0 0 Z " fill="#C27C7C" transform="translate(131,109)"/>
<path d="M0 0 C0.33 2.97 0.66 5.94 1 9 C0.34 9 -0.32 9 -1 9 C-1.33 9.99 -1.66 10.98 -2 12 C-3.20272819 9.59454362 -3.10071472 8.05003047 -3.0625 5.375 C-3.05347656 4.55773437 -3.04445313 3.74046875 -3.03515625 2.8984375 C-3.02355469 2.27195312 -3.01195313 1.64546875 -3 1 C-1 0 -1 0 0 0 Z " fill="#B89999" transform="translate(21,101)"/>
<path d="M0 0 C5.66710699 1.31793186 7.66437233 3.48709197 11 8 C10.67 8.66 10.34 9.32 10 10 C8.62437146 8.71034824 7.29233607 7.37310707 6 6 C6 5.34 6 4.68 6 4 C4.02 3.34 2.04 2.68 0 2 C0 1.34 0 0.68 0 0 Z " fill="#731B1B" transform="translate(159,72)"/>
<path d="M0 0 C1.32 0.66 2.64 1.32 4 2 C3.690625 2.598125 3.38125 3.19625 3.0625 3.8125 C1.89790296 6.08956772 1.89790296 6.08956772 1 9 C0.34 9 -0.32 9 -1 9 C-0.67 6.03 -0.34 3.06 0 0 Z " fill="#E2C3C2" transform="translate(63,108)"/>
<path d="M0 0 C3.4375 0.8125 3.4375 0.8125 7 2 C7.33 2.99 7.66 3.98 8 5 C1.375 4.25 1.375 4.25 -2 2 C-1.34 1.34 -0.68 0.68 0 0 Z " fill="#D7B5B4" transform="translate(112,65)"/>
<path d="M0 0 C-4.95 0 -9.9 0 -15 0 C-15 -0.33 -15 -0.66 -15 -1 C-8.32697231 -3.18156675 -6.16197224 -3.08098612 0 0 Z " fill="#9C2121" transform="translate(140,120)"/>
<path d="M0 0 C4.29 0.99 8.58 1.98 13 3 C13 3.33 13 3.66 13 4 C11.39620659 4.05416188 9.79188594 4.09286638 8.1875 4.125 C7.29417969 4.14820312 6.40085937 4.17140625 5.48046875 4.1953125 C3 4 3 4 0 2 C0 1.34 0 0.68 0 0 Z " fill="#5F0A0A" transform="translate(111,62)"/>
<path d="M0 0 C0.99 0.33 1.98 0.66 3 1 C2.34 2.32 1.68 3.64 1 5 C1.66 5 2.32 5 3 5 C3 5.66 3 6.32 3 7 C1.68 7 0.36 7 -1 7 C-1.04254356 5.00045254 -1.04080783 2.99958364 -1 1 C-0.67 0.67 -0.34 0.34 0 0 Z " fill="#EDD9D9" transform="translate(128,110)"/>
<path d="M0 0 C0 0.66 0 1.32 0 2 C0.66 2.33 1.32 2.66 2 3 C-0.31 3.33 -2.62 3.66 -5 4 C-5 3.34 -5 2.68 -5 2 C-6.32 1.67 -7.64 1.34 -9 1 C-2.25 0 -2.25 0 0 0 Z " fill="#D7AEAF" transform="translate(80,66)"/>
<path d="M0 0 C1.485 0.99 1.485 0.99 3 2 C3 2.66 3 3.32 3 4 C3.61875 4.28875 4.2375 4.5775 4.875 4.875 C7 6 7 6 9 8 C5.41209425 7.70100785 4.21833224 7.23013399 1.6875 4.5625 C0 2 0 2 0 0 Z " fill="#44191B" transform="translate(20,113)"/>
<path d="M0 0 C4.40114397 0.50298788 6.71195019 2.08772731 10 5 C9.67 5.66 9.34 6.32 9 7 C7.4972763 6.02501855 5.99788037 5.04490611 4.5 4.0625 C3.6646875 3.51722656 2.829375 2.97195312 1.96875 2.41015625 C1.3190625 1.94480469 0.669375 1.47945313 0 1 C0 0.67 0 0.34 0 0 Z " fill="#5C1011" transform="translate(159,67)"/>
<path d="M0 0 C0 0.99 0 1.98 0 3 C-4.34285714 7 -4.34285714 7 -7 7 C-5.66667905 3.00003714 -3.5042173 2.16217663 0 0 Z " fill="#390F0F" transform="translate(169,116)"/>
<path d="M0 0 C0.66 0 1.32 0 2 0 C1.74438677 2.3431213 1.40729228 4.67843403 1 7 C0.01 7.495 0.01 7.495 -1 8 C-1.125 2.25 -1.125 2.25 0 0 Z " fill="#EED9D8" transform="translate(121,102)"/>
<path d="M0 0 C0.66 0.33 1.32 0.66 2 1 C0.68 2.32 -0.64 3.64 -2 5 C-3.32 4.34 -4.64 3.68 -6 3 C-4.03533587 1.93224776 -2.03144641 0.93446535 0 0 Z " fill="#680B0C" transform="translate(93,57)"/>
<path d="M0 0 C0.66 0 1.32 0 2 0 C1.67 1.32 1.34 2.64 1 4 C-0.98 4 -2.96 4 -5 4 C-5 3.34 -5 2.68 -5 2 C-3.35 2 -1.7 2 0 2 C0 1.34 0 0.68 0 0 Z " fill="#EDD8D8" transform="translate(99,113)"/>
<path d="M0 0 C0.66 0 1.32 0 2 0 C1.75 1.875 1.75 1.875 1 4 C-1.0625 5.25 -1.0625 5.25 -3 6 C-1.125 1.125 -1.125 1.125 0 0 Z " fill="#A53F3F" transform="translate(110,109)"/>
<path d="M0 0 C2.50037734 2.17424117 3.43628586 3.73045798 4 7 C3.01 7.33 2.02 7.66 1 8 C0 2.25 0 2.25 0 0 Z " fill="#AC9394" transform="translate(169,74)"/>
<path d="M0 0 C2.02045442 0.60183749 4.02111039 1.27306096 6 2 C6.33 2.66 6.66 3.32 7 4 C4.69 3.67 2.38 3.34 0 3 C0 2.01 0 1.02 0 0 Z " fill="#E4CACB" transform="translate(106,63)"/>
</svg>
